<svg width="24" height="25" viewBox="0 0 24 25" fill="none" xmlns="http://www.w3.org/2000/svg">
<path d="M4.15141 10.7694C4.46955 10.5515 4.90616 10.6294 5.12447 10.9517C7.5436 14.491 11.9658 18.4784 14.7804 19.6576C15.9196 20.1893 16.7676 20.2222 17.3974 19.7675C17.8881 19.4668 19.2856 18.0697 19.2604 17.3425C19.252 17.257 19.155 17.0963 18.9899 16.9253C18.4525 16.371 16.6501 14.9974 16.2732 14.8546C15.9727 14.7935 15.6667 14.972 15.1956 15.2699L14.953 15.4221C14.6218 15.6222 14.1908 15.5132 13.993 15.1816C13.7934 14.8471 13.9007 14.4139 14.2319 14.2138L14.4502 14.0776C14.9726 13.7469 15.6891 13.2968 16.5988 13.4857C17.3125 13.6341 19.5608 15.4972 19.99 15.9407C20.394 16.356 20.6188 16.7994 20.6571 17.2598C20.7177 18.9895 18.4152 20.7991 18.1521 20.9513C17.6492 21.3158 17.0606 21.5 16.3991 21.5C15.7404 21.5 15.009 21.3177 14.2169 20.9475C11.17 19.6716 6.56214 15.5405 3.97229 11.7494C3.75305 11.4299 3.83328 10.9912 4.15141 10.7694ZM6.17861 2.70325C6.65907 2.74271 7.09942 2.96914 7.51365 3.37596C7.95307 3.80721 9.80309 6.07246 9.95143 6.79215C10.111 7.56352 9.76671 8.16577 9.51575 8.60548C9.26852 9.03861 9.18269 9.2237 9.26758 9.45765C9.89266 10.9966 10.8573 12.2528 12.1252 13.1651C12.4396 13.3925 12.5124 13.8312 12.2875 14.1488C12.1513 14.3405 11.9367 14.4438 11.7184 14.4438C11.5776 14.4438 11.4348 14.4015 11.3117 14.3123C9.82548 13.2421 8.69849 11.7802 7.96146 9.96406C7.63773 9.06679 8.0221 8.39408 8.30292 7.9027C8.51377 7.53439 8.63038 7.31454 8.58094 7.07965C8.45033 6.74048 7.08543 4.92433 6.53592 4.38503C6.36613 4.21686 6.20659 4.1182 6.08811 4.10881C5.45931 4.07968 4.05429 5.42417 3.74456 5.94092C3.26409 6.60612 3.29768 7.45923 3.81359 8.60078C3.97313 8.95499 3.81826 9.37215 3.46654 9.53375C3.11575 9.69535 2.69966 9.53845 2.54012 9.18424C1.80683 7.56164 1.81989 6.20682 2.58117 5.16016C2.74164 4.88769 4.51703 2.59332 6.17861 2.70325ZM13.8651 5.84265C15.8057 6.22316 17.304 7.73207 17.6827 9.68633C17.7564 10.0678 17.5092 10.4389 17.1295 10.5131C17.0847 10.5216 17.039 10.5253 16.9942 10.5253C16.6668 10.5253 16.3738 10.2923 16.3085 9.95598C16.0398 8.56733 14.9753 7.49625 13.5974 7.2266C13.2186 7.15237 12.9704 6.78125 13.0441 6.3998C13.1188 6.01834 13.491 5.77782 13.8651 5.84265ZM13.809 2.50566C17.6135 2.93033 20.5691 5.90306 20.9954 9.73359C21.0393 10.1207 20.7622 10.4702 20.3788 10.5125C20.3517 10.5153 20.3256 10.5172 20.2995 10.5172C19.9487 10.5172 19.6455 10.2513 19.6053 9.89143C19.2508 6.71953 16.8047 4.25791 13.6541 3.90558C13.2697 3.86236 12.9936 3.51473 13.0356 3.12764C13.0794 2.74055 13.4255 2.45586 13.809 2.50566Z" fill="#6C7894"/>
</svg>
