<svg width="24" height="25" viewBox="0 0 24 25" fill="none" xmlns="http://www.w3.org/2000/svg">
<path d="M15.7472 2.49979C19.6082 2.49979 22.0002 4.89279 22.0002 8.75579V16.2558C22.0002 20.1078 19.6082 22.4998 15.7472 22.4998H8.2442C4.3922 22.4998 2.0002 20.1078 2.0012 16.2528C2.0012 15.8308 2.3432 15.4878 2.7662 15.4878C3.1882 15.4878 3.5312 15.8308 3.5312 16.2528C3.5312 19.2868 5.2022 20.9668 8.2542 20.9668H15.7472C18.7902 20.9668 20.4702 19.2958 20.4702 16.2528V8.75279C20.4702 5.70979 18.8002 4.02979 15.7472 4.02979H8.2532C5.2102 4.02979 3.5302 5.70979 3.5302 8.75279V11.0838C3.5302 11.5018 3.1912 11.8398 2.7742 11.8398H2.7632C2.3412 11.8398 1.9992 11.4968 2.0002 11.0748V8.75279C2.0002 4.89279 4.4102 2.49979 8.2542 2.49979H15.7472ZM11.9947 11.1257C12.4087 11.1257 12.7447 11.4617 12.7447 11.8757V16.2957C12.7447 16.7097 12.4087 17.0457 11.9947 17.0457C11.5807 17.0457 11.2447 16.7097 11.2447 16.2957V11.8757C11.2447 11.4617 11.5807 11.1257 11.9947 11.1257ZM12.005 7.95389C12.419 7.95389 12.755 8.28989 12.755 8.70389C12.755 9.11789 12.419 9.45389 12.005 9.45389H11.995C11.581 9.45389 11.25 9.11789 11.25 8.70389C11.25 8.28989 11.591 7.95389 12.005 7.95389Z" fill="#6C7894"/>
</svg>
