<svg width="24" height="25" viewBox="0 0 24 25" fill="none" xmlns="http://www.w3.org/2000/svg">
<path d="M14.016 15.3441C14.4092 15.3441 14.7284 15.6391 14.7284 16.0025V16.8071C14.7284 18.8985 12.8872 20.6 10.6231 20.6H6.11357C3.84583 20.6 2 18.8942 2 16.7977C2 16.4343 2.3192 16.1401 2.71243 16.1401C3.10565 16.1401 3.42485 16.4343 3.42485 16.7977C3.42485 18.1691 4.63135 19.2832 6.11357 19.2832H10.6231C12.1017 19.2832 13.3035 18.1726 13.3035 16.8071V16.0025C13.3035 15.6391 13.6227 15.3441 14.016 15.3441ZM20.2874 11.3909C20.576 11.3909 20.836 11.5517 20.9461 11.7988C21.0562 12.045 20.9942 12.3289 20.7907 12.517L18.0872 15.0043C17.9475 15.1317 17.7661 15.1967 17.5838 15.1967C17.4016 15.1967 17.2184 15.1317 17.0796 15.0026C16.802 14.7444 16.802 14.328 17.0814 14.0715L18.5627 12.7085H9.17164C8.77842 12.7085 8.45829 12.4136 8.45829 12.0502C8.45829 11.6868 8.77842 11.3909 9.17164 11.3909H20.2874ZM10.6141 3.5C12.8827 3.5 14.7286 5.20579 14.7286 7.30234V8.09837C14.7286 8.46091 14.4094 8.7559 14.0161 8.7559C13.6229 8.7559 13.3037 8.46091 13.3037 8.09837V7.30234C13.3037 5.93086 12.0972 4.81675 10.6141 4.81675H6.10543C4.62691 4.81675 3.42504 5.9283 3.42504 7.29293V13.804C3.42504 14.1674 3.10584 14.4624 2.71261 14.4624C2.31939 14.4624 2.00019 14.1674 2.00019 13.804V7.29293C2.00019 5.20152 3.84139 3.5 6.10543 3.5H10.6141ZM17.0777 9.10039C17.3553 8.84046 17.805 8.83875 18.0853 9.09526L18.7663 9.71772C19.0466 9.97423 19.0485 10.3906 18.7718 10.6489C18.6321 10.7788 18.4489 10.8447 18.2657 10.8447C18.0844 10.8447 17.903 10.7805 17.7643 10.654L17.0824 10.0307C16.8029 9.77501 16.8011 9.35775 17.0777 9.10039Z" fill="#6C7894"/>
</svg>
